<svg width="38" height="38" viewBox="0 0 38 38" fill="none" xmlns="http://www.w3.org/2000/svg">
<g id="Camera button">
<path id="Oval Copy" opacity="0.33" fill-rule="evenodd" clip-rule="evenodd" d="M18.7451 37.4426C29.0672 37.4426 37.435 29.0852 37.435 18.7757C37.435 8.46628 29.0672 0.108826 18.7451 0.108826C8.42293 0.108826 0.0551758 8.46628 0.0551758 18.7757C0.0551758 29.0852 8.42293 37.4426 18.7451 37.4426Z" fill="#5F5858" fill-opacity="0.5"/>
<path id="Camera Icon" fill-rule="evenodd" clip-rule="evenodd" d="M18.7508 16.0236C17.1016 16.0236 15.7641 17.3623 15.7641 19.014C15.7641 20.6649 17.1016 22.0044 18.7508 22.0044C20.4007 22.0044 21.7374 20.6649 21.7374 19.014C21.7374 17.3623 20.4007 16.0236 18.7508 16.0236ZM23.4912 16.2842C23.2161 16.2842 22.9918 16.0587 22.9918 15.7809C22.9918 15.5031 23.2161 15.2776 23.4912 15.2776C23.7664 15.2776 23.9899 15.5031 23.9899 15.7809C23.9899 16.0587 23.7664 16.2842 23.4912 16.2842ZM18.747 22.7354C16.6993 22.7354 15.0404 21.074 15.0404 19.0252C15.0404 16.9763 16.6993 15.3157 18.747 15.3157C20.7939 15.3157 22.4536 16.9763 22.4536 19.0252C22.4536 21.074 20.7939 22.7354 18.747 22.7354ZM26.9684 16.1169C26.9684 16.0467 26.9684 15.9773 26.9676 15.9078C26.9676 15.8488 26.9669 15.7899 26.9654 15.7309C26.9616 15.6032 26.9542 15.4165 26.9317 15.2896C26.9086 15.1612 26.8712 15.0984 26.8129 14.9812C26.7545 14.867 26.679 14.7617 26.5886 14.6706C26.4989 14.5787 26.3942 14.5033 26.2806 14.4443C26.1647 14.3854 26.0466 14.3473 25.9187 14.3241C25.7931 14.301 25.6653 14.2935 25.5382 14.2905C25.4799 14.289 25.4216 14.2883 25.3633 14.2883C25.2945 14.2875 25.225 14.2875 25.1562 14.2875H24.5985H23.4898C23.3806 14.2823 23.2715 14.2831 23.1646 14.2636C23.0188 14.2368 22.8835 14.183 22.7512 14.1143C22.6218 14.0479 22.5037 13.9635 22.4005 13.859C22.2981 13.7544 22.1688 13.2721 22.0649 13.0294C22.032 12.9532 22.02 12.9092 21.9901 12.8502C21.9243 12.7195 21.8376 12.5978 21.7359 12.4933C21.632 12.3887 21.5131 12.3006 21.3846 12.2334C21.2522 12.1647 21.1169 12.1222 20.9711 12.096C20.8283 12.0692 20.6818 12.0617 20.5368 12.0572C20.4702 12.055 16.9722 12.055 16.9057 12.0572C16.7614 12.0617 16.6149 12.0692 16.4721 12.096C16.3271 12.1222 16.1917 12.1647 16.0594 12.2334C15.9301 12.3006 15.8112 12.388 15.7081 12.4925C15.6049 12.5971 15.5189 12.7188 15.4531 12.8502C15.424 12.9092 15.3993 12.9682 15.3791 13.0286C15.2752 13.287 15.1488 13.7462 15.0457 13.8507C14.9433 13.9553 14.8244 14.0404 14.6943 14.1068C14.5627 14.1763 14.4274 14.2293 14.2824 14.2554C14.1388 14.2816 13.9931 14.2801 13.848 14.2831C13.7815 14.286 13.8555 14.286 13.7882 14.2868C13.7097 14.2875 13.6312 14.2875 13.552 14.2875H12.8919H12.3341C12.2654 14.2875 12.1966 14.2875 12.1271 14.2883C12.0688 14.2883 12.0104 14.289 11.9521 14.2905C11.825 14.2935 11.6972 14.301 11.5716 14.3241C11.4438 14.3473 11.3256 14.3854 11.2098 14.4443C11.0961 14.5033 10.9915 14.5787 10.9018 14.6706C10.8113 14.7617 10.7358 14.867 10.6782 14.9812C10.6192 15.0984 10.581 15.2179 10.5586 15.3471C10.5362 15.4733 10.528 15.6032 10.525 15.7309C10.5235 15.7899 10.5235 15.8488 10.5227 15.9078C10.522 15.9773 10.522 16.0467 10.522 16.1169V16.4858V22.1075V22.6712C10.522 22.7414 10.522 22.8108 10.5227 22.8803C10.5235 22.94 10.5235 22.9983 10.525 23.0572C10.528 23.1857 10.5362 23.3141 10.5586 23.441C10.581 23.5702 10.6192 23.6897 10.6782 23.8069C10.7358 23.9219 10.8113 24.0264 10.9018 24.1175C10.9915 24.2086 11.0961 24.2848 11.2098 24.3438C11.3256 24.4028 11.4438 24.4408 11.5716 24.464C11.6972 24.4871 11.825 24.4946 11.9521 24.4976C12.0104 24.4991 12.0688 24.4998 12.1271 24.5006C12.1966 24.5006 12.2654 24.5006 12.3341 24.5006H25.1562C25.225 24.5006 25.2945 24.5006 25.3633 24.5006C25.4216 24.4998 25.4799 24.4991 25.5382 24.4976C25.6653 24.4946 25.7931 24.4871 25.9187 24.464C26.0466 24.4408 26.1647 24.4028 26.2806 24.3438C26.3942 24.2848 26.4989 24.2086 26.5886 24.1175C26.679 24.0264 26.7545 23.9219 26.8129 23.8069C26.8712 23.6897 26.9086 23.5702 26.9317 23.441C26.9542 23.3141 26.9616 23.1857 26.9654 23.0572C26.9669 22.9983 26.9676 22.94 26.9676 22.8803C26.9684 22.8108 26.9684 22.7414 26.9684 22.6712V22.1075V16.6806V16.1169ZM12.1151 13.788H13.6626C13.7157 13.788 13.759 13.7447 13.759 13.6917V13.3646C13.759 13.3541 13.759 13.3429 13.7583 13.3325C13.7575 13.3086 13.7553 13.2847 13.7516 13.2616C13.7478 13.2377 13.7411 13.2153 13.7299 13.1936C13.7194 13.1727 13.706 13.1533 13.6895 13.1369C13.6723 13.1197 13.6536 13.1055 13.6334 13.095C13.6118 13.0838 13.5901 13.0764 13.5669 13.0726C13.5437 13.0682 13.5205 13.0667 13.4974 13.0659C13.4869 13.0659 13.4757 13.0652 13.4652 13.0652H12.3154C12.3057 13.0652 12.2945 13.0659 12.284 13.0659C12.2609 13.0667 12.2377 13.0682 12.2145 13.0726C12.1913 13.0764 12.1696 13.0838 12.1487 13.095C12.1278 13.1055 12.1091 13.1197 12.0919 13.1369C12.0754 13.1533 12.0627 13.1727 12.0515 13.1936C12.0403 13.2153 12.0343 13.2377 12.0298 13.2616C12.0254 13.2847 12.0239 13.3086 12.0239 13.3325C12.0231 13.3429 12.0209 13.3541 12.0209 13.3646C12.0209 13.3773 12.0194 13.3907 12.0194 13.4034V13.6917C12.0194 13.7447 12.0627 13.788 12.1151 13.788Z" fill="white"/>
</g>
</svg>
