<svg width="39" height="38" viewBox="0 0 39 38" fill="none" xmlns="http://www.w3.org/2000/svg">
<g id="Flashlight button">
<path id="Oval" opacity="0.33" fill-rule="evenodd" clip-rule="evenodd" d="M19.5551 37.4426C29.8773 37.4426 38.245 29.0852 38.245 18.7757C38.245 8.46628 29.8773 0.108826 19.5551 0.108826C9.23299 0.108826 0.865234 8.46628 0.865234 18.7757C0.865234 29.0852 9.23299 37.4426 19.5551 37.4426Z" fill="#5F5858" fill-opacity="0.5"/>
<path id="Flashlight Icon" fill-rule="evenodd" clip-rule="evenodd" d="M20.3015 20.5182C20.3015 20.9303 19.9673 21.2641 19.5547 21.2641C19.142 21.2641 18.8078 20.9303 18.8078 20.5182C18.8078 20.106 19.142 19.7722 19.5547 19.7722C19.9673 19.7722 20.3015 20.106 20.3015 20.5182ZM18.3063 18.5432V20.5025C18.3063 21.1909 18.8655 21.7487 19.5547 21.7487C20.244 21.7487 20.8032 21.1909 20.8032 20.5025V18.5432C20.8032 17.854 20.244 17.2962 19.5547 17.2962C18.8655 17.2962 18.3063 17.854 18.3063 18.5432ZM19.7423 11.8067H23.2934C23.2934 12.7534 23.2927 13.4956 22.3582 14.7941C21.6188 15.8215 21.5485 16.2643 21.5485 17.4067V26.1802V27.6743V27.8602C21.5485 28.4792 21.0469 28.9802 20.4271 28.9802H18.683C18.0632 28.9802 17.5616 28.4792 17.5616 27.8602V27.6743V26.1802V17.4067C17.5616 16.2643 17.4913 15.8215 16.7512 14.7941C15.8174 13.4956 15.8167 12.7534 15.8167 11.8067H19.3685H19.7423ZM15.8167 10.1894C15.8167 9.9833 15.9841 9.81604 16.1904 9.81604H22.9196C23.1259 9.81604 23.2934 9.9833 23.2934 10.1894V11.06H15.8167V10.1894Z" fill="white"/>
</g>
</svg>
