<svg width="18" height="26" viewBox="0 0 18 26" fill="none" xmlns="http://www.w3.org/2000/svg">
<path id="Fill 1" fill-rule="evenodd" clip-rule="evenodd" d="M12.8963 10.7351H4.40369C4.31721 10.7351 4.23446 10.7351 4.15347 10.7351V9.03964C4.15347 8.02117 4.16044 7.26927 4.31372 6.51239C4.46151 5.78364 4.73366 5.15319 5.14564 4.60563C5.97381 3.50503 7.27777 2.87111 8.65001 2.87111C10.0225 2.87111 11.3262 3.50503 12.1544 4.60563C12.5666 5.15319 12.8388 5.78364 12.9863 6.51239C13.1398 7.26927 13.1465 8.02117 13.1465 9.03964V10.7351C13.0658 10.7351 12.9831 10.7351 12.8963 10.7351ZM17.2474 15.1017C17.2474 14.5255 17.2484 14.0752 17.2417 13.7818C17.2344 13.46 17.2165 13.1867 17.1699 12.9234C17.0747 12.3882 16.8554 11.9114 16.4653 11.5199C16.1857 11.2391 15.8612 11.0477 15.5038 10.926V9.03965C15.5038 7.89723 15.4936 6.92382 15.2611 5.88295C15.036 4.87618 14.6248 3.95528 13.9967 3.14141C12.7307 1.50096 10.7531 0.529785 8.65009 0.529785C6.54712 0.529785 4.56951 1.50096 3.30344 3.14141C2.67539 3.95528 2.26417 4.87618 2.03937 5.88295C1.80659 6.92382 1.79637 7.89723 1.79637 9.03965V10.926C1.43898 11.0477 1.11449 11.2391 0.834858 11.5199C0.444819 11.9114 0.2255 12.3882 0.130296 12.9234C0.0834413 13.1867 0.0657462 13.46 0.0585187 13.7818C0.0517896 14.0752 0.0527865 14.5255 0.0527865 15.1017V21.0514C0.0527865 21.6276 0.0517896 22.0778 0.0585187 22.3713C0.0657462 22.6931 0.0834413 22.9666 0.130296 23.2297C0.2255 23.7648 0.444819 24.242 0.834858 24.6332C1.22465 25.0247 1.70017 25.2445 2.23327 25.3403C2.4957 25.3871 2.7681 25.405 3.08836 25.4122C3.3812 25.419 3.82981 25.4182 4.40378 25.4182H12.8964C13.4704 25.4182 13.9192 25.419 14.2116 25.4122C14.5321 25.405 14.8045 25.3871 15.0669 25.3403C15.6 25.2445 16.0755 25.0247 16.4653 24.6332C16.8554 24.242 17.0747 23.7648 17.1699 23.2297C17.2165 22.9666 17.2344 22.6931 17.2417 22.3713C17.2484 22.0778 17.2474 21.6276 17.2474 21.0514V15.1017Z" fill="white"/>
</svg>
