<svg width="98" height="44" viewBox="0 0 98 44" fill="none" xmlns="http://www.w3.org/2000/svg">
<path id="Time" fill-rule="evenodd" clip-rule="evenodd" d="M1.74223 34.0149C1.65462 33.5482 1.91744 33.3149 2.26788 33.3149H3.69882C4.13687 33.3149 4.31209 33.519 4.4289 33.869C5.4218 38.1566 9.335 41.3941 14.8252 41.3941C22.8268 41.3941 27.4408 33.8982 27.8205 21.9397C27.8497 21.1522 27.8205 20.1897 27.8205 19.3439H27.7329C26.3603 24.5356 20.9286 28.5898 14.6791 28.5898C6.61912 28.5898 0.690918 22.6981 0.690918 14.9105C0.690918 6.62706 6.73593 0.41449 15.0004 0.41449C19.9065 0.41449 23.9657 2.63118 26.5648 6.42289C29.0762 9.8646 30.3903 14.7355 30.3903 21.0356C30.3903 34.9774 24.5497 43.7567 14.8252 43.7567C7.93326 43.7567 2.99795 39.7608 1.74223 34.0149ZM26.8567 15.0855C26.8567 8.28957 21.7461 2.83534 15.0295 2.83534C8.37119 2.83534 3.34827 8.02707 3.34827 14.8521C3.34827 21.1522 8.19597 26.2273 14.9711 26.2273C21.5417 26.2273 26.8567 21.0355 26.8567 15.0855ZM40.1732 13.1313C39.0051 13.1313 38.0706 12.1688 38.0706 11.0313C38.0706 9.8646 39.0051 8.93126 40.1732 8.93126C41.3413 8.93126 42.2758 9.8646 42.2758 11.0313C42.2758 12.1688 41.3413 13.1313 40.1732 13.1313ZM40.1732 35.5899C39.0051 35.5899 38.0706 34.6566 38.0706 33.4899C38.0706 32.3232 39.0051 31.3898 40.1732 31.3898C41.3413 31.3898 42.2758 32.3232 42.2758 33.4899C42.2758 34.6566 41.3413 35.5899 40.1732 35.5899ZM71.07 42.4733V32.819H50.1022C49.6934 32.819 49.4306 32.5565 49.4306 32.1482V30.6898C49.4306 30.4273 49.489 30.2523 49.635 30.019C55.3004 21.1814 61.433 12.3438 69.493 1.40615C69.7266 1.11448 69.9019 0.939475 70.3399 0.939475H72.9974C73.377 0.939475 73.6398 1.20198 73.6398 1.61032V30.4273H79.5972C80.0061 30.4273 80.2689 30.6898 80.2689 31.0982V32.1482C80.2689 32.5565 80.0061 32.819 79.5972 32.819H73.6398V42.4733C73.6398 42.8816 73.377 43.1441 72.9974 43.1441H71.7416C71.3328 43.1441 71.07 42.8816 71.07 42.4733ZM52.2633 30.4273H71.07V3.47701H71.0116C63.7692 13.2188 57.5198 22.2314 52.2633 30.369V30.4273ZM95.25 42.4733V4.00202H95.1916C92.6802 5.57704 87.8033 8.81458 84.6786 10.8271C84.2989 11.0896 83.7149 10.9729 83.7149 10.4479V9.13541C83.7149 8.63957 83.8317 8.49374 84.1821 8.2604C87.1608 6.30621 91.5413 3.38951 94.7244 1.40615C95.0456 1.20198 95.3084 1.05615 95.7757 1.05615H97.1774C97.5863 1.05615 97.8491 1.31865 97.8491 1.72699V42.4733C97.8491 42.8816 97.5863 43.1441 97.1774 43.1441H95.9217C95.5129 43.1441 95.25 42.8816 95.25 42.4733Z" fill="white"/>
</svg>
